<?xml version="1.0" encoding="utf-8"?>
<!-- Generator: Adobe Illustrator 16.0.4, SVG Export Plug-In . SVG Version: 6.00 Build 0)  -->
<!DOCTYPE svg PUBLIC "-//W3C//DTD SVG 1.1//EN" "http://www.w3.org/Graphics/SVG/1.1/DTD/svg11.dtd">
<svg version="1.1" id="Layer_1" xmlns="http://www.w3.org/2000/svg" xmlns:xlink="http://www.w3.org/1999/xlink" x="0px" y="0px"
	 width="115.196px" height="16.606px" viewBox="0 0 115.196 16.606" enable-background="new 0 0 115.196 16.606"
	 xml:space="preserve">
<path fill="#E4EBD4" d="M23.438,12.431c-2.301,0-3.345-1.139-3.345-2.633l0.119-0.095h1.376l0.118,0.095
	c0,0.806,0.451,1.257,1.851,1.257c1.043,0,1.613-0.355,1.613-1.044c0-0.806-0.451-1.043-2.064-1.281
	c-1.613-0.236-2.87-0.806-2.87-2.419c0-1.163,0.925-2.183,3.107-2.183c2.183,0,3.108,1.02,3.108,2.42l-0.119,0.095h-1.376
	l-0.118-0.095c0-0.688-0.356-1.044-1.614-1.044c-1.043,0-1.375,0.355-1.375,0.807c0,0.688,0.45,0.925,2.063,1.162
	c1.614,0.237,2.871,0.925,2.871,2.538C26.782,11.269,25.857,12.431,23.438,12.431"/>
<polygon fill="#E4EBD4" points="34.634,12.312 33.258,12.312 33.116,12.193 33.116,8.967 33.021,8.85 29.914,8.85 29.795,8.967 
	29.795,12.193 29.676,12.312 28.3,12.312 28.206,12.193 28.206,4.365 28.3,4.224 29.676,4.224 29.795,4.365 29.795,7.354 
	29.914,7.474 33.021,7.474 33.116,7.354 33.116,4.365 33.258,4.224 34.634,4.224 34.776,4.365 34.776,12.193 "/>
<path fill="#E4EBD4" d="M42.819,12.312h-1.044l-0.119-0.118l-0.569-1.495l-0.237-0.117h-2.871l-0.237,0.117l-0.569,1.495
	l-0.119,0.118h-1.043l-0.143-0.118V11.03l2.657-6.688l0.119-0.119h1.494l0.119,0.119l2.657,6.688v1.163L42.819,12.312z
	 M39.474,6.287h-0.119l-1.043,2.775l0.118,0.118h1.969l0.119-0.118L39.474,6.287z"/>
<path fill="#E4EBD4" d="M49.01,8.968v0.118l1.518,1.969v1.163l-0.118,0.118h-0.688l-0.237-0.118l-2.302-3.013l-0.237-0.119h-1.162
	l-0.119,0.143v2.989l-0.118,0.118h-1.376l-0.095-0.118V4.389l0.095-0.142h3.795c1.613,0,2.752,0.806,2.752,2.42
	C50.766,7.924,49.983,8.729,49.01,8.968 M47.99,5.599h-2.182l-0.119,0.143v1.851l0.119,0.095h2.182c0.688,0,1.162-0.237,1.162-1.044
	S48.702,5.599,47.99,5.599"/>
<polygon fill="#E4EBD4" points="57.692,12.312 52.284,12.312 52.142,12.193 52.142,4.365 52.284,4.224 57.692,4.224 57.812,4.365 
	57.812,5.527 57.692,5.622 53.896,5.622 53.802,5.766 53.802,7.378 53.896,7.496 57.479,7.496 57.622,7.615 57.622,8.777 
	57.479,8.896 53.896,8.896 53.802,9.016 53.802,10.865 53.896,10.984 57.692,10.984 57.812,11.103 57.812,12.266 "/>
<polygon fill="#E4EBD4" points="65.284,5.599 62.983,5.599 62.84,5.741 62.84,12.193 62.746,12.312 61.37,12.312 61.25,12.193 
	61.25,5.741 61.132,5.599 58.832,5.599 58.688,5.504 58.688,4.342 58.832,4.199 65.284,4.199 65.403,4.342 65.403,5.504 "/>
<polygon fill="#E4EBD4" points="73.017,12.312 71.641,12.312 71.499,12.193 71.499,8.967 71.405,8.85 68.295,8.85 68.178,8.967 
	68.178,12.193 68.059,12.312 66.683,12.312 66.588,12.193 66.588,4.365 66.683,4.224 68.059,4.224 68.178,4.365 68.178,7.354 
	68.295,7.474 71.405,7.474 71.499,7.354 71.499,4.365 71.641,4.224 73.017,4.224 73.159,4.365 73.159,12.193 "/>
<path fill="#E4EBD4" d="M79.92,8.968v0.118l1.518,1.969v1.163l-0.142,0.118h-0.688l-0.236-0.118l-2.301-3.013l-0.238-0.119H76.67
	l-0.096,0.143v2.989l-0.142,0.118h-1.376l-0.143-0.118V4.389l0.143-0.142h3.796c1.613,0,2.775,0.806,2.775,2.42
	C81.653,7.924,80.823,8.729,79.92,8.968 M78.901,5.599h-2.183l-0.095,0.143v1.851l0.095,0.095h2.183
	c0.688,0,1.162-0.237,1.162-1.044C80.04,5.836,79.588,5.599,78.901,5.599"/>
<path fill="#E4EBD4" d="M86.491,12.431c-2.42,0-3.914-1.731-3.914-4.15c0-2.42,1.494-4.152,3.914-4.152s3.914,1.732,3.914,4.152
	C90.405,10.699,88.911,12.431,86.491,12.431 M86.491,5.504c-1.494,0-2.301,1.162-2.301,2.776c0,1.612,0.807,2.774,2.301,2.774
	s2.302-1.162,2.302-2.774C88.792,6.666,87.985,5.504,86.491,5.504"/>
<path fill="#E4EBD4" d="M98.258,9.204c0,2.064-1.14,3.227-3.227,3.227c-2.064,0-3.227-1.162-3.227-3.227V4.365L91.9,4.223h1.376
	l0.119,0.143v4.839c0,1.162,0.474,1.851,1.637,1.851c1.162,0,1.637-0.688,1.637-1.851V4.365l0.094-0.143h1.377l0.119,0.143V9.204z"
	/>
<path fill="#E4EBD4" d="M106.893,12.312h-1.045l-0.117-0.119l-0.119-0.569h-0.119c-0.237,0.214-0.807,0.808-2.062,0.808
	c-2.303,0-3.797-1.732-3.797-4.152c0-2.419,1.494-4.151,3.914-4.151c2.301,0,3.227,1.257,3.465,2.419l-0.119,0.096h-1.377
	l-0.119-0.096c-0.236-0.449-0.568-1.043-1.85-1.043c-1.494,0-2.301,1.162-2.301,2.775s0.807,2.775,2.301,2.775
	c1.258,0,1.85-0.688,1.85-1.59L105.28,9.37h-1.969l-0.096-0.142V8.066l0.096-0.096h3.582l0.142,0.096v4.15L106.893,12.312z"/>
<polygon fill="#E4EBD4" points="115.077,12.312 113.701,12.312 113.606,12.193 113.606,8.967 113.463,8.85 110.356,8.85 
	110.213,8.967 110.213,12.193 110.119,12.312 108.743,12.312 108.625,12.193 108.625,4.365 108.743,4.224 110.119,4.224 
	110.213,4.365 110.213,7.354 110.356,7.474 113.463,7.474 113.606,7.354 113.606,4.365 113.701,4.224 115.077,4.224 115.196,4.365 
	115.196,12.193 "/>
<path fill="#E4EBD4" d="M14.399,4.033L7.425,0H7.14L0.142,4.033L0,4.271v8.065l0.142,0.237l6.998,4.033h0.285l6.998-4.033
	l0.143-0.237V4.271L14.399,4.033z M4.531,7.781l0.925,0.521l0.902,0.522l0.901,0.522l0.902-0.522l0.901-0.522l0.901-0.521
	l0.902,0.521v1.045v1.043l-3.653,2.111l-3.654-2.111L4.46,9.869l2.728,1.589v-1.044L5.361,9.37L4.46,8.85L3.558,8.327V6.215
	l3.654-2.11l3.653,2.11L9.963,6.737L9.062,7.259L8.161,7.781L7.259,8.303L6.358,7.781L5.456,7.259L4.555,6.737L3.653,6.215
	L4.531,7.781z"/>
<g>
</g>
<g>
</g>
<g>
</g>
<g>
</g>
<g>
</g>
<g>
</g>
<g>
</g>
<g>
</g>
<g>
</g>
<g>
</g>
<g>
</g>
<g>
</g>
<g>
</g>
<g>
</g>
<g>
</g>
</svg>
