<?xml version="1.0" encoding="utf-8"?>
<!-- Generator: Adobe Illustrator 16.0.4, SVG Export Plug-In . SVG Version: 6.00 Build 0)  -->
<!DOCTYPE svg PUBLIC "-//W3C//DTD SVG 1.1//EN" "http://www.w3.org/Graphics/SVG/1.1/DTD/svg11.dtd">
<svg version="1.1" id="Layer_1" xmlns="http://www.w3.org/2000/svg" xmlns:xlink="http://www.w3.org/1999/xlink" x="0px" y="0px"
	 width="80.492px" height="25.997px" viewBox="0 0 80.492 25.997" enable-background="new 0 0 80.492 25.997" xml:space="preserve">
<path fill="#E4EBD4" d="M41.289,0.249c1.086,0,2.045,0.479,2.707,1.247l-1.008,0.855c-0.422-0.471-1.028-0.759-1.699-0.759
	c-1.191,0-2.12,0.902-2.12,2.11c0,1.21,0.929,2.104,2.12,2.104c0.671,0,1.285-0.288,1.708-0.769l1.009,0.854
	c-0.662,0.777-1.631,1.256-2.717,1.256c-1.986,0-3.598-1.447-3.598-3.445C37.69,1.708,39.302,0.249,41.289,0.249"/>
<path fill="#E4EBD4" d="M48.193,0.249c1.984,0,3.569,1.524,3.569,3.464c0,1.95-1.585,3.466-3.569,3.466
	c-1.979,0-3.57-1.516-3.57-3.466C44.623,1.773,46.214,0.249,48.193,0.249 M48.193,5.835c1.17,0,2.092-0.94,2.092-2.122
	c0-1.159-0.912-2.121-2.092-2.121c-1.182,0-2.094,0.952-2.094,2.121C46.099,4.914,47.011,5.835,48.193,5.835"/>
<polygon fill="#E4EBD4" points="53.031,0.354 54.509,0.354 54.509,5.701 57.121,5.701 57.121,7.045 53.031,7.045 "/>
<path fill="#E4EBD4" d="M58.09,0.354h1.478v3.83c0,1.17,0.549,1.622,1.375,1.622c0.813,0,1.359-0.452,1.359-1.622v-3.83h1.48v3.983
	c0,1.89-1.285,2.81-2.84,2.81c-1.566,0-2.853-0.92-2.853-2.81V0.354z"/>
<polygon fill="#E4EBD4" points="65.597,0.354 66.835,0.354 69.13,3.781 71.423,0.354 72.663,0.354 72.663,7.045 71.271,7.045 
	71.271,2.965 69.13,6.132 66.981,2.965 66.981,7.045 65.597,7.045 "/>
<polygon fill="#E4EBD4" points="74.542,0.354 75.857,0.354 79.062,4.51 79.062,0.354 80.492,0.354 80.492,7.045 79.283,7.045 
	75.974,2.773 75.974,7.045 74.542,7.045 "/>
<polygon fill="#E4EBD4" points="37.809,11.687 42.214,11.687 42.214,13.03 39.288,13.03 39.288,14.401 41.957,14.401 41.957,15.718 
	39.288,15.718 39.288,18.377 37.809,18.377 "/>
<rect x="43.636" y="11.687" fill="#E4EBD4" width="1.479" height="6.69"/>
<polygon fill="#E4EBD4" points="46.294,11.687 47.871,11.687 49.693,16.217 51.509,11.687 53.082,11.687 50.347,18.377 
	49.042,18.377 "/>
<polygon fill="#E4EBD4" points="54.263,11.687 58.833,11.687 58.833,13.03 55.742,13.03 55.742,14.288 58.632,14.288 58.632,15.604 
	55.742,15.604 55.742,17.034 58.9,17.034 58.9,18.377 54.263,18.377 "/>
<path fill="#E4EBD4" d="M22.059,25.997c-0.963,0-1.84-0.597-2.468-1.684l-7.288-12.624L19.053,0l1.15,0.666l-6.366,11.023
	l6.904,11.959c0.374,0.648,0.856,1.021,1.317,1.021c0.463,0,0.943-0.372,1.32-1.021l7.097-12.291l1.149,0.664l-7.095,12.292
	C23.902,25.4,23.024,25.997,22.059,25.997"/>
<path fill="#E4EBD4" d="M18.98,25.997c-0.965,0-1.841-0.597-2.468-1.684L9.224,11.689L15.975,0l1.151,0.666l-6.368,11.023
	l6.907,11.959c0.374,0.648,0.854,1.021,1.316,1.021V25.997z"/>
<polygon fill="#E4EBD4" points="22.056,23.271 28.55,12.021 27.4,11.357 21.289,21.938 "/>
<polygon fill="#E4EBD4" points="20.518,20.606 25.474,12.021 24.321,11.357 19.749,19.276 "/>
<polygon fill="#E4EBD4" points="18.978,17.943 22.398,12.021 21.248,11.357 18.213,16.615 "/>
<polygon fill="#E4EBD4" points="17.441,15.28 19.322,12.021 18.172,11.357 16.675,13.951 "/>
<path fill="#E4EBD4" d="M15.908,25.997c-0.964,0-1.84-0.597-2.467-1.684l-7.29-12.624L12.9,0l1.153,0.666l-6.37,11.023l6.908,11.959
	c0.375,0.648,0.855,1.021,1.317,1.021V25.997z"/>
<path fill="#E4EBD4" d="M12.833,25.997c-0.966,0-1.842-0.597-2.469-1.684L3.075,11.689L9.825,0l1.151,0.666L4.611,11.689
	l6.904,11.959c0.374,0.648,0.855,1.021,1.318,1.021V25.997z"/>
<path fill="#E4EBD4" d="M9.758,25.997c-0.965,0-1.841-0.597-2.469-1.684L0,11.689L6.75,0l1.153,0.666L1.534,11.689l6.907,11.959
	c0.374,0.648,0.854,1.021,1.317,1.021V25.997z"/>
<g>
</g>
<g>
</g>
<g>
</g>
<g>
</g>
<g>
</g>
<g>
</g>
<g>
</g>
<g>
</g>
<g>
</g>
<g>
</g>
<g>
</g>
<g>
</g>
<g>
</g>
<g>
</g>
<g>
</g>
</svg>
